<?xml version="1.0" encoding="UTF-8"?>
<svg id="Livello_2" data-name="Livello 2" xmlns="http://www.w3.org/2000/svg" viewBox="0 0 265.7 350.89">
  <g id="Livello_1-2" data-name="Livello 1">
    <g id="originale_-_verticale_boxy" data-name="originale - verticale boxy">
      <g>
        <path d="M157.65,194l23.04,37.9c-17.19,9.11-36.79,14.28-57.6,14.28C55.11,246.18,0,191.07,0,123.09S55.11,0,123.09,0c34.08,0,64.93,13.85,87.21,36.23l-31.33,31.2c-14.28-14.34-34.04-23.21-55.88-23.21-43.56,0-78.87,35.31-78.87,78.87s35.31,78.87,78.87,78.87c12.39,0,24.12-2.86,34.56-7.96Z"/>
        <path d="M244.36,101.87h-105.06v42.23h59.83c-4.67,16.95-14.85,31.6-28.5,41.93l23.05,37.91c31.75-22.26,52.5-59.13,52.5-100.85,0-7.24-.62-14.33-1.82-21.22Z"/>
        <path d="M235.49,203.88c-8.49,11.78-18.79,22.18-30.49,30.79,10.68,7.18,17.7,19.38,17.7,33.21,0,22.09-17.91,40-40,40s-40-17.91-40-40c0-2.68.27-5.29.77-7.82-6.65.99-13.46,1.5-20.38,1.5-7.83,0-15.5-.66-22.98-1.92-.27,2.71-.41,5.45-.41,8.23,0,45.77,37.23,83,83,83s83-37.23,83-83c0-25.73-11.77-48.77-30.21-64Z"/>
      </g>
    </g>
  </g>
</svg>